{"title":"Sleepaway Camp (1983) 720p fiveofseven zombiRG","uid":15191983,"size":1172768143,"categoryP":"video","categoryS":"hd___movies","magnet":"?xt=urn:btih:4c05bc9be015e3c4e5f312a966674ede35d52be9&amp;dn=Sleepaway+Camp+%281983%29+720p+fiveofseven+zombiRG&amp;tr=udp%3A%2F%2Ftracker.leechers-paradise.org%3A6969&amp;tr=udp%3A%2F%2Fzer0day.ch%3A1337&amp;tr=udp%3A%2F%2Fopen.demonii.com%3A1337&amp;tr=udp%3A%2F%2Ftracker.coppersurfer.tk%3A6969&amp;tr=udp%3A%2F%2Fexodus.desync.com%3A6969","seeders":1,"leechers":0,"uploader":"fiveofseven","files":3,"time":1467527441,"description":"PLOT - Angela Baker, a traumatized and very shy young girl, \r\nis sent to summer camp with her cousin. Shortly after her arrival, \r\nanyone with sinister or less than honorable intentions gets their comeuppance.\r\n\r\n\r\nINFO\r\n\r\nEncoder: fiveofseven\r\nSource: Blu-Ray\r\nRating: R (Unedited)\r\nGenre: Horror\r\nSubtitles: English\r\nPoster: \r  https://yuq.me/users/25/564/2vMnBlRaJh.jpg \r\n\r\nGeneral\r\nComplete name                            : Sleepaway Camp 720p (fiveofseven zombiRG).mp4\r\nFormat                                   : MPEG-4\r\nFormat profile                           : Base Media\r\nCodec ID                                 : isom\r\nFile size                                : 1.09 GiB\r\nDuration                                 : 1h 24mn\r\nOverall bit rate mode                    : Variable\r\nOverall bit rate                         : 1 831 Kbps\r\nEncoded date                             : UTC 2016-05-06 21:22:33\r\nTagged date                              : UTC 2016-05-06 23:29:27\r\nWriting application                      : My MP4Box GUI 0.6.0.6 &lt;http://my-mp4box-gui.zymichost.com&gt;\r\n\r\nVideo\r\nID                                       : 1\r\nFormat                                   : AVC\r\nFormat/Info                              : Advanced Video Codec\r\nFormat profile                           :   \r\nFormat settings, CABAC                   : Yes\r\nFormat settings, ReFrames                : 7 frames\r\nCodec ID                                 : avc1\r\nCodec ID/Info                            : Advanced Video Coding\r\nDuration                                 : 1h 24mn\r\nBit rate                                 : 1 700 Kbps\r\nMaximum bit rate                         : 8 826 Kbps\r\nWidth                                    : 1 280 pixels\r\nHeight                                   : 720 pixels\r\nDisplay aspect ratio                     : 16:9\r\nFrame rate mode                          : Constant\r\nFrame rate                               : 23.976 fps\r\nColor space                              : YUV\r\nChroma subsampling                       : 4:2:0\r\nBit depth                                : 8 bits\r\nScan type                                : Progressive\r\nBits/(Pixel*Frame)                       : 0.077\r\nStream size                              : 1.01 GiB (93%)\r\nTitle                                    : sc 720p.mp4\r\nWriting library                          : x264 core 146 r2538 121396c\r\nLanguage                                 : English\r\nEncoded date                             : UTC 2016-05-06 20:27:26\r\nTagged date                              : UTC 2016-05-06 21:23:24\r\n\r\nAudio\r\nID                                       : 2\r\nFormat                                   : AAC\r\nFormat/Info                              : Advanced Audio Codec\r\nFormat profile                           : LC\r\nCodec ID                                 : 40\r\nDuration                                 : 1h 24mn\r\nBit rate mode                            : Variable\r\nBit rate                                 : 128 Kbps\r\nMaximum bit rate                         : 131 Kbps\r\nChannel count                            : 2 channels\r\nChannel positions                        : Front: L R\r\nSampling rate                            : 48.0 KHz\r\nCompression mode                         : Lossy\r\nStream size                              : 77.7 MiB (7%)\r\nTitle                                    : aac.mp4\r\nLanguage                                 : English\r\nEncoded date                             : UTC 2016-05-06 21:23:19\r\nTagged date                              : UTC 2016-05-06 21:23:24\r\n\r\n\r\nScreenshots - \r\n  \nhttps://yuq.me/users/25/564/PgGRsz3pZ0.jpg \r\n  \nhttps://yuq.me/users/25/564/Vd702e6wWZ.jpg \r\n  \nhttps://yuq.me/users/25/564/gc69KvPCXY.jpg \r\n  \nhttps://yuq.me/users/25/564/7ZEzaMDxGl.jpg \r\n \r\nsignature \r\n  \nhttps://yuq.me/users/25/564/aegRQCBILx.png","torrent":{"xt":"urn:btih:4c05bc9be015e3c4e5f312a966674ede35d52be9","amp;dn":"Sleepaway+Camp+%281983%29+720p+fiveofseven+zombiRG","amp;tr":["udp%3A%2F%2Ftracker.leechers-paradise.org%3A6969","udp%3A%2F%2Fzer0day.ch%3A1337","udp%3A%2F%2Fopen.demonii.com%3A1337","udp%3A%2F%2Ftracker.coppersurfer.tk%3A6969","udp%3A%2F%2Fexodus.desync.com%3A6969"],"infoHash":"4c05bc9be015e3c4e5f312a966674ede35d52be9","infoHashBuffer":{"type":"Buffer","data":[76,5,188,155,224,21,227,196,229,243,18,169,102,103,78,222,53,213,43,233]},"announce":[],"urlList":[]}}